<svg xmlns="http://www.w3.org/2000/svg" viewBox="0 0 226.22 254.48"><defs><style>.cls-1{fill:#4d40cc;stroke:#000;}.cls-1,.cls-2,.cls-3,.cls-6,.cls-7,.cls-8{stroke-linecap:round;}.cls-1,.cls-2,.cls-3,.cls-6,.cls-7{stroke-linejoin:round;}.cls-1,.cls-2,.cls-3{stroke-width:4px;}.cls-2{fill:#331980;}.cls-2,.cls-3,.cls-8{stroke:#100d19;}.cls-3{fill:#8080ff;}.cls-4{fill:#abb7ff;}.cls-5{fill:#100d19;}.cls-6,.cls-7,.cls-8{fill:none;}.cls-6{stroke:#4836b2;}.cls-6,.cls-7{stroke-width:12px;}.cls-7{stroke:#fce;}.cls-8{stroke-miterlimit:10;stroke-width:10px;}</style></defs><g id="Layer_2" data-name="Layer 2"><g id="Layer_1-2" data-name="Layer 1"><path class="cls-1" d="M8.5,51.36C2,62.6.57,84.69,11.82,91.18S42.71,86.1,49.2,74.86A23.5,23.5,0,1,0,8.5,51.36Z"/><path class="cls-1" d="M26.93,49.34A12.17,12.17,0,0,0,15.87,62.53"/><path class="cls-1" d="M217.73,51.36c6.49,11.24,7.92,33.33-3.32,39.82S183.51,86.1,177,74.86a23.5,23.5,0,0,1,40.71-23.5Z"/><path class="cls-1" d="M198.28,49.34a12.17,12.17,0,0,1,11.06,13.19"/><path class="cls-2" d="M224.22,155c0,57.75-49.74,80.16-111.11,80.16S2,212.78,2,155,51.75,2,113.11,2,224.22,97.29,224.22,155Z"/><path class="cls-3" d="M113.11,252.48c37.6,0,67.13-24.42,73.52-59.9,2.89-16-12-20.87-29.45-35.84,9-4.59,28.86-13.34,25.49-33.85-2.76-16.84-10.79-31.77-23.33-33.94-18.37-3.18-26.59,11.84-46.23,11.84S85.25,85.77,66.89,89c-12.55,2.17-20.58,17.1-23.34,33.94C40.18,143.4,60,152.15,69,156.74c-17.45,15-32.33,19.83-29.45,35.84C46,228.06,75.51,252.48,113.11,252.48Z"/><path class="cls-4" d="M113.11,240.75c15.89.08,28-7.79,39.55-15.08,9.75-6.14,17.43-14.47,14-28.17-1.75-7-11.24-11.44-19.44-14-5.08-1.6-8-6.43-8.29-11.76a11.51,11.51,0,0,0-11.78-10.78,17.35,17.35,0,0,0-10.43,3.62,5.91,5.91,0,0,1-7.24,0,17.31,17.31,0,0,0-10.42-3.62,11.51,11.51,0,0,0-11.79,10.78c-.27,5.33-3.2,10.16-8.29,11.76-8.19,2.58-17.69,7-19.44,14-3.42,13.7,4.26,22,14,28.17C85.16,233,97.23,240.83,113.11,240.75Z"/><path class="cls-5" d="M109.7,180.63h0a3.79,3.79,0,0,1-4.6,1l-7.82-3.88a5.91,5.91,0,0,1-1.9-9.1h0a5.9,5.9,0,0,1,9.29.29l5.18,7A3.8,3.8,0,0,1,109.7,180.63Z"/><path class="cls-5" d="M116.53,180.6h0a3.79,3.79,0,0,0,4.6,1l7.81-3.87a5.92,5.92,0,0,0,1.91-9.11h0a5.92,5.92,0,0,0-9.3.3l-5.17,7A3.8,3.8,0,0,0,116.53,180.6Z"/><path class="cls-6" d="M160.43,126.67h0a147.3,147.3,0,0,0-94.64,0h0"/><line class="cls-7" x1="58.96" y1="158.57" x2="74.44" y2="158.57"/><line class="cls-7" x1="152.02" y1="158.55" x2="167.5" y2="158.55"/><path class="cls-5" d="M96.78,149.6a28.68,28.68,0,0,0-16-5.6c-3.16,0-5.18-1-5.41-3.18s1.35-3.6,3.27-4.77a17.26,17.26,0,0,1,12.45-2c4.79,1,8.15,2.66,10.81,6.76a7.71,7.71,0,0,1,.89,6.18C102.17,149.44,99.35,151.4,96.78,149.6Z"/><path class="cls-5" d="M129.44,149.6a28.71,28.71,0,0,1,16-5.6c3.16,0,5.19-1,5.41-3.18s-1.35-3.6-3.26-4.77a17.29,17.29,0,0,0-12.46-2c-4.79,1-8.15,2.66-10.81,6.76a7.71,7.71,0,0,0-.89,6.18C124.05,149.44,126.88,151.4,129.44,149.6Z"/><path class="cls-8" d="M57.65,197.44h0c36,21.91,75,21.91,110.93,0"/></g></g></svg>