<?xml version="1.0" encoding="UTF-8"?>
<!DOCTYPE svg PUBLIC "-//W3C//DTD SVG 1.1//EN" "http://www.w3.org/Graphics/SVG/1.1/DTD/svg11.dtd">
<!-- Creator: CorelDRAW 2019 -->
<svg xmlns="http://www.w3.org/2000/svg" xml:space="preserve" width="1000px" height="1000px" version="1.1" style="shape-rendering:geometricPrecision; text-rendering:geometricPrecision; image-rendering:optimizeQuality; fill-rule:evenodd; clip-rule:evenodd"
viewBox="0 0 16.46 16.46"
 xmlns:xlink="http://www.w3.org/1999/xlink"
 xmlns:xodm="http://www.corel.com/coreldraw/odm/2003">
 <defs>
  <style type="text/css">
   <![CDATA[
    .str2 {stroke:#99FF00;stroke-width:0.21;stroke-linecap:round;stroke-linejoin:round;stroke-miterlimit:2.61313}
    .str1 {stroke:white;stroke-width:0.21;stroke-linecap:round;stroke-linejoin:round;stroke-miterlimit:2.61313}
    .str0 {stroke:white;stroke-width:0.21;stroke-linecap:round;stroke-linejoin:round;stroke-miterlimit:2.61313}
    .str3 {stroke:#99FF00;stroke-width:0.21;stroke-linecap:round;stroke-linejoin:round;stroke-miterlimit:2.61313}
    .fil1 {fill:none}
    .fil0 {fill:#001200}
   ]]>
  </style>
 </defs>
 <g id="Layer_x0020_1">
  <metadata id="CorelCorpID_0Corel-Layer"/>
  <g id="_1568753392">
   <circle class="fil0" cx="8.23" cy="8.23" r="8.23"/>
   <g>
    <path class="fil1 str0" d="M9.8 12.47l0.01 -0.4c0,-1.16 2.64,-0.81 2.82,-4.14 0.13,-2.48 -1.81,-4.58 -4.28,-4.65 -2.68,-0.08 -4.8,2.24 -4.5,4.9 0.32,2.79 2.63,2.99 2.63,3.99 0,0.24 0,0.44 0,0.65 0,0.14 0.11,0.24 0.24,0.24l2.83 0c0.13,0 0.24,0.11 0.24,0.24l0 0.1c0,0.13 -0.11,0.24 -0.24,0.24l-2.66 0c-0.14,0 -0.24,0.11 -0.24,0.24l0 0.04c0,0.13 0.1,0.24 0.24,0.24l2.66 0c0.13,0 0.24,0.11 0.24,0.24l0 0.08c0,0.14 -0.11,0.24 -0.24,0.24l-2.65 0c-0.13,0 -0.24,0.11 -0.24,0.24l0 0.05c0,0.13 0.11,0.24 0.24,0.24l1.83 0c0.13,0 0.24,0.11 0.24,0.24l0 0.05c0,0.13 -0.11,0.24 -0.24,0.24l-1.15 0"/>
    <polyline class="fil1 str1" points="8.28,8 8.28,12.47 9.8,12.47 "/>
    <path class="fil1 str2" d="M8.95 11.89l0 -5.39c0,-0.33 0.27,-0.6 0.6,-0.6l0.13 0c0.33,0 0.59,0.27 0.59,0.6l0 0.26c0,0.33 -0.26,0.6 -0.59,0.6l-2.9 0c-0.33,0 -0.6,-0.27 -0.6,-0.6l0 -0.26c0,-0.33 0.27,-0.6 0.6,-0.6l0.16 0c0.33,0 0.6,0.27 0.6,0.6l0 5.94"/>
    <path class="fil1 str3" d="M6.8 15.7c-3.57,-0.68 -6.15,-3.81 -6.15,-7.44 0,-4.19 3.39,-7.58 7.58,-7.58 4.19,0 7.58,3.39 7.58,7.58 0,3.62 -2.57,6.74 -6.12,7.44"/>
   </g>
  </g>
 </g>
</svg>
