<svg width="349" height="87" viewBox="0 0 349 87" fill="none" xmlns="http://www.w3.org/2000/svg">
<path d="M82.5 1.8C82.1 0.7 81 0 79.9 0C78.8 0 77.7 0.6 77.1 1.6L65.3 22.9H53L39.7 2.4C39.1 1.4 38 0.9 36.9 1C35.8 1.1 34.8 1.7 34.4 2.7L22.9 27.2C22.2 28.7 22.8 30.5 24.3 31.2C25.8 31.9 27.6 31.3 28.3 29.8L37.5 10.3L48.8 27.6C49.4 28.5 50.3 29 51.3 29H67C68.1 29 69.1 28.4 69.6 27.4L79.4 9.8L88.5 29.9C89 31 90.1 31.7 91.3 31.7C91.7 31.7 92.1 31.6 92.5 31.4C94 30.7 94.7 28.9 94 27.4L82.5 1.8Z" fill="white"/>
<path d="M116.2 52.8C113.1 52.8 111 51.1 111 49.6V34.6C111 29.4 106.1 25.4 99.7 25.4H97.7V31.4H99.7C102.8 31.4 104.9 33.1 104.9 34.6V49.6C104.9 52 106 54.2 107.8 55.8C106 57.4 104.9 59.6 104.9 62V77C104.9 78.5 102.8 80.2 99.7 80.2H97.7V86.2H99.7C106 86.2 111 82.2 111 77V62C111 60.5 113.2 58.8 116.2 58.8H117V52.8H116.2Z" fill="url(#paint0_linear)"/>
<path d="M6 34.6V49.6C6 51.1 3.8 52.8 0.8 52.8H0V58.8H0.8C3.9 58.8 6 60.5 6 62V77C6 82.2 10.9 86.2 17.3 86.2H19.3V80.2H17.3C14.2 80.2 12.1 78.5 12.1 77V62C12.1 59.6 11 57.4 9.2 55.8C11 54.2 12.1 52 12.1 49.6V34.6C12.1 33.1 14.2 31.4 17.3 31.4H19.3V25.4H17.3C11 25.4 6 29.4 6 34.6Z" fill="url(#paint1_linear)"/>
<path d="M40.9 45.5C40.9 43.4 39.2 41.8 37.2 41.8C35.1 41.8 33.5 43.5 33.5 45.5C33.5 47.6 35.2 49.2 37.2 49.2C39.2 49.2 40.9 47.5 40.9 45.5Z" fill="white"/>
<path d="M83.6 45.5C83.6 43.4 81.9 41.8 79.9 41.8C77.8 41.8 76.2 43.5 76.2 45.5C76.2 47.6 77.9 49.2 79.9 49.2C81.9 49.2 83.6 47.5 83.6 45.5Z" fill="white"/>
<path d="M75.8 69.6L94.3 76.8V71.8L82.7 67.3V67.2L94.3 62.7V57.8L75.8 65V69.6Z" fill="white"/>
<path d="M22.7 62.7L34.3 67.2V67.3L22.7 71.8V76.8L41.2 69.6V65L22.7 57.8V62.7Z" fill="white"/>
<path d="M148 48.2V37.2H154.1C160.2 37.2 161.4 40.3 161.4 42.8C161.4 45.3 160.2 48.2 154.1 48.2H148ZM139.3 69.1H148V53.5L160.8 69.1H172.4L158.8 54.6C168.8 53.9 170.3 47.3 170.3 42.7C170.3 37.6 168.6 30 153.7 30H139.3V69.1Z" fill="white"/>
<path d="M187.6 69.6C194.4 69.6 197.4 67.5 199.5 64.3L201.4 69.1H204.9V37.8H196.5V55.4C196.5 59.9 195.3 62.6 190 62.6C184.7 62.6 183.9 59.9 183.9 55.4V37.8H175.6V54.7C175.6 63.4 177.7 69.6 187.6 69.6Z" fill="white"/>
<path d="M219 48.9C219 46.3 220.1 44.4 224.6 44.4C229.2 44.4 230.2 46.3 230.2 48.9C230.2 51.7 229.2 53.6 224.6 53.6C220.1 53.7 219 51.6 219 48.9ZM224.6 82.2C238.1 82.2 241 76.8 241 72.3C241 65.8 233.6 64.8 227.3 63.8C219.5 62.6 218.3 62.3 218.3 61.4C218.3 60.2 220.1 60.2 224.6 59.9C230 59.6 239 59.2 239 50.4C239 46.7 237.5 44.4 235.1 43.3L240.2 41.5V37.8H226.3C213.3 37.8 210.3 43 210.3 48.1C210.3 52 212 55.2 216.4 56.8C212.4 57.5 209.6 59.1 209.6 62.4C209.6 67.3 215.1 68.4 224 69.7C231.5 70.9 232.2 71.4 232.2 73.1C232.2 74.3 231 75.9 225.5 75.9C219 75.9 218.4 73.8 218.2 71.3H209.3C209.4 77.9 212.6 82.2 224.6 82.2Z" fill="white"/>
<path d="M254.4 61.9V37.2H258.9C266.8 37.2 270.6 39.2 270.6 49.2C270.6 59.2 266.5 61.9 258.6 61.9H254.4ZM245.8 69.1H260.3C272.5 69.1 279.3 61.7 279.3 49.3C279.3 36.8 272.9 30 261 30H245.8V69.1Z" fill="white"/>
<path d="M292 53.4C292 48.3 293.6 44.4 299.3 44.4C305.2 44.4 306.6 48.4 306.6 53.4C306.6 58.7 304.9 62.4 299.1 62.4C293.6 62.4 292 58.6 292 53.4ZM299.3 69.6C311.5 69.6 315 61.8 315 53.4C315 45.1 311.5 37.3 299.4 37.3C287.2 37.3 283.8 45.1 283.8 53.4C283.8 61.7 287.2 69.6 299.3 69.6Z" fill="white"/>
<path d="M334.4 69.6C344.3 69.6 348.8 64.5 348.8 56.9L340.2 56.8C339.7 60.2 338.2 62.4 334.1 62.4C328.6 62.4 326.7 58.6 326.7 53.4C326.7 48 328.7 44.3 334.1 44.3C338.2 44.3 339.7 46.4 340.2 50.3H348.8C348.8 42.6 344.1 37.3 334.2 37.3C321.8 37.3 318.4 45.1 318.4 53.5C318.5 61.9 321.7 69.6 334.4 69.6Z" fill="white"/>
<defs>
<linearGradient id="paint0_linear" x1="107.35" y1="25.4" x2="107.35" y2="86.2" gradientUnits="userSpaceOnUse">
<stop stop-color="#1BD4F7"/>
<stop offset="1" stop-color="#83E335"/>
</linearGradient>
<linearGradient id="paint1_linear" x1="9.65" y1="25.4" x2="9.65" y2="86.2" gradientUnits="userSpaceOnUse">
<stop stop-color="#1BD4F7"/>
<stop offset="1" stop-color="#83E335"/>
</linearGradient>
</defs>
</svg>
