<svg id="Layer_9_Copy_3_Image" data-name="Layer 9 Copy 3Â Image" xmlns="http://www.w3.org/2000/svg" viewBox="0 0 82.54349 120.42825"><defs><style>.cls-1{fill:#85fef1;}.cls-2{fill:#43fef1;}.cls-3{fill:#43e4e4;}.cls-4{fill:#28e4bb;}.cls-5{fill:#43f1d6;}.cls-6{fill:#0dc9d6;}.cls-7{fill:#28f1e4;}.cls-8{fill:#d5fefb;}.cls-9{fill:#e3fefb;}.cls-10{fill:#29f1e4;}.cls-11{fill:#d5fbf5;}.cls-12{fill:#c9f2f5;}.cls-13{fill:#d5f8f8;}.cls-14{fill:#30f2e5;}.cls-15{fill:#11ccd6;}.cls-16{fill:#cff8ef;}.cls-17{fill:#cffbf8;}.cls-18{fill:#31e5bf;}</style></defs><title>Illustration3(1)</title><path class="cls-1" d="M42.35427.46876c.67067.007.92621.58042,1.26466.98836q8.53769,10.29065,17.047,20.60489Q68.95,32.09734,77.2223,42.1425c1.92534,2.33132,3.87724,4.64068,5.817,6.96007v.47905a2.20235,2.20235,0,0,0-1.02714-.24281c-2.77447-.03765-5.53519.422-8.31076.23776-.60589-.04023-.68635.40981-.92195.74369l-.04835-.74151A18.15318,18.15318,0,0,0,72.52,45.42521,13.13028,13.13028,0,0,0,60.3591,34.71443a14.119,14.119,0,0,0-8.70523,2.36687,10.95115,10.95115,0,0,0-4.99525,6.979,8.61534,8.61534,0,0,0-.69553,3.68062c-.02659,4.76217-.00544,9.52459-.00214,14.28692-.40877-.34558-.23611-.81644-.238-1.23254-.0137-2.98788-.03294-5.97623.01053-8.96354.0123-.84529-.26692-1.124-1.096-1.07707-1.0713.06066-2.14848.01723-3.22313.01861l-.04162-.24668L42.353.70645A.98548.98548,0,0,1,42.35427.46876Z" transform="translate(-0.49582 -0.46876)"/><path class="cls-2" d="M72.77946,50.32026c.2356-.33388.31606-.78392.92195-.74369,2.77557.18424,5.53629-.27541,8.31076-.23776a2.20235,2.20235,0,0,1,1.02714.24281v.47905a31.93363,31.93363,0,0,0-1.41509,6.11279q-4.14112,20.30832-8.2155,40.63026a6.8796,6.8796,0,0,1-.2122.68562,48.56126,48.56126,0,0,1-4.99175-3.33543l.03981-.24417a4.38417,4.38417,0,0,0,.76711-.55635,13.82917,13.82917,0,0,0,3.74716-9.43078Q72.78935,67.12146,72.77946,50.32026Z" transform="translate(-0.49582 -0.46876)"/><path class="cls-3" d="M57.9437,120.32112c-.2543.27966-.59275.18382-.89989.18679q-13.09458.12631-26.18924.245c-3.42665.03358-6.853.0936-10.27969.12774-.48739.00486-1.10535.16657-1.16931-.63986.5778.27934.56341-.25261.6715-.52875Q24.48115,108.4604,28.859,97.19851c.11422-.29375.505-.59839.06649-.94287l.76182-.43629a10.76758,10.76758,0,0,0,5.51187-4.99541,3.15092,3.15092,0,0,0,.27207-.38348,16.66674,16.66674,0,0,0,1.706-8.5307c-.17406-3.97912-.05851-7.97091-.06928-11.95725-.00075-.27747-.04858-.5632.19958-.77459q.021,2.30286.04168,4.60529v1.5l.70112-1.27173.47776.24426a42.84289,42.84289,0,0,0,2.06274,5.06447c2.1603,5.11912,4.35525,10.22356,6.53255,15.3355q3.31235,7.77681,6.61346,15.55841C55.1564,113.57578,56.54255,116.95162,57.9437,120.32112Z" transform="translate(-0.49582 -0.46876)"/><path class="cls-4" d="M42.353.70645q-.49014,24.91011-.9801,49.82029c-.91765-.54184-1.81957-1.1135-2.75815-1.61663a2.19046,2.19046,0,0,1-1.41484-1.95718c-.1115-.46431-.25352-.92365-.32986-1.39369A13.18866,13.18866,0,0,0,24.00409,34.70859a17.43654,17.43654,0,0,0-6.27148,1.24967c-.14337-.37181-.50385-.47558-.80149-.6643q-3.09448-1.96206-6.18082-3.937c-.00047-.422.3461-.60967.59511-.85006q15.218-14.69148,30.446-29.37265A5.88015,5.88015,0,0,1,42.353.70645Z" transform="translate(-0.49582 -0.46876)"/><path class="cls-5" d="M57.9437,120.32112c-1.40115-3.3695-2.7873-6.74534-4.20692-10.107q-3.28838-7.787-6.61346-15.55841c-2.1773-5.11194-4.37225-10.21638-6.53255-15.3355a42.83949,42.83949,0,0,1-2.06273-5.0645c2.4333,1.6949,5.01,3.18007,7.33964,5.02663l.06008.0002.05969-.00463a41.85709,41.85709,0,0,0,.15773,6.54617A13.18959,13.18959,0,0,0,58.57693,97.248,13.85081,13.85081,0,0,0,68.20475,94.154a48.58062,48.58062,0,0,0,4.99177,3.33532,60.63136,60.63136,0,0,1-3.5009,5.39925q-5.46081,8.20964-10.96331,16.39151C58.49035,119.64114,58.20753,119.97475,57.9437,120.32112Z" transform="translate(-0.49582 -0.46876)"/><path class="cls-6" d="M28.92545,96.25564c.43849.34448.04773.64912-.06649.94287Q24.48009,108.46,20.07707,119.712c-.10809.27614-.0937.80809-.6715.52875Q13.65693,105.97319,7.90928,91.70512q-3.40591-8.46288-6.793-16.93338c-.16124-.40269-.28111-.822-.42021-1.23355l9.75525-.01363q.02889,5.67428.0604,11.34855a9.624,9.624,0,0,0,.08,1.78664A13.372,13.372,0,0,0,23.45226,97.28567,19.208,19.208,0,0,0,28.92545,96.25564Z" transform="translate(-0.49582 -0.46876)"/><path class="cls-7" d="M10.45129,73.52457l-9.7552.01362C.29843,73.17369.60091,72.792.6881,72.432Q5.05039,54.41911,9.43329,36.41127a42.86025,42.86025,0,0,1,1.31706-5.05437q3.08948,1.97,6.18077,3.93706c.29764.18872.65812.29249.8013.66425q-.01331.10373-.03028.20695a3.284,3.284,0,0,0-.66381.23974c-4.04646,2.53211-6.4756,6.03787-6.51995,10.954-.01906,2.11256-.00811,4.22544-.00313,6.33816q.02338,9.92368.05265,19.84735Z" transform="translate(-0.49582 -0.46876)"/><path class="cls-8" d="M72.77946,50.32026q-.0075,16.80117-.02061,33.60235a13.82917,13.82917,0,0,1-3.74716,9.43078,4.37182,4.37182,0,0,1-.76736.55626,11.36537,11.36537,0,0,1-4.5868-3.05911c.44362-.45669,1.00927-.75517,1.44243-1.24542A8.6574,8.6574,0,0,0,67.34963,83.18c-.18634-5.0226-.04508-10.057-.06062-15.08651-.0054-1.7464.22736-3.48315.11051-5.23706-.0684-1.02673-.37753-.9502-1.09091-.50173-4.14445,2.60543-8.4976,4.68747-13.44945,5.21788-1.52423.16326-1.87408.57569-1.87923,2.13367q-.021,6.34535-.049,12.69068a34.33608,34.33608,0,0,1-4.94327-3.119l-.05989.00462-.0597-.00011c.0318-3.23817.06937-6.47642.08288-9.71477a2.60558,2.60558,0,0,0-.25294-.77123c-.26768-.44115-.70735-.28319-1.08139-.28586-1.94948-.01393-3.89911-.0063-5.84869-.00617l-.00058-.00058c.234-1.48224.51846-2.959.67984-4.44913.07641-.70564.38132-.84089.994-.82871,1.43273.02847,2.86643.01118,4.29972.00758.47073-.00118.9878.08871,1.195-.5227l.02505-.683c-.0033-4.76233-.02445-9.52475.00214-14.28692a8.61361,8.61361,0,0,1,.69559-3.6805c-.0729,1.85286-.56771,3.66452-.49208,5.53751.02938.72765.25753.99263.97587.95187a14.56632,14.56632,0,0,1,2.37795.00615c1.11969.121,1.5533-.23446,1.48461-1.4198a4.58013,4.58013,0,0,1,.19209-2.67131q.01144,2.04074.02263,4.08141c-.01071,3.665-.01542,7.33-.03754,10.99494-.00408.67364.06037.97258.93462.82128a40.10437,40.10437,0,0,0,9.29611-2.929c4.25521-1.871,6.29058-5.237,6.062-9.60437a14.256,14.256,0,0,0-.47835-4.795c.90349,1.12184.69306,2.46.73165,3.75133.01357.45434-.13243,1.04958.62479,1.024a16.2007,16.2007,0,0,0,4.37811-.23063Z" transform="translate(-0.49582 -0.46876)"/><path class="cls-9" d="M72.73111,49.57875a16.2007,16.2007,0,0,1-4.37811.23063c-.75722.02561-.61122-.56963-.62479-1.024-.03859-1.29137.17184-2.62949-.73156-3.75136-.20207-.33845-.41954-.66874-.604-1.01658a8.13753,8.13753,0,0,0-7.61285-4.21111c-3.55023.403-6.97862,3.50952-7.58284,6.65849a4.58116,4.58116,0,0,0-.192,2.67133c.06869,1.18534-.36492,1.54075-1.48461,1.4198a14.56632,14.56632,0,0,0-2.37795-.00615c-.71834.04076-.94649-.22422-.97587-.95187-.07563-1.873.41918-3.68465.49208-5.53751a10.95079,10.95079,0,0,1,4.99519-6.97915,14.119,14.119,0,0,1,8.70523-2.36687A13.13028,13.13028,0,0,1,72.52,45.42521,18.15318,18.15318,0,0,1,72.73111,49.57875Z" transform="translate(-0.49582 -0.46876)"/><path class="cls-2" d="M45.96095,62.02787l-.025.68325c-2.13171.581-4.30287.18008-6.45472.26.57542-2.61765.79921-5.28871,1.2089-7.9314a22.41435,22.41435,0,0,1,.7242-4.26635c1.07465-.00138,2.15183.042,3.22313-.01861.8291-.04694,1.10832.23178,1.096,1.07707-.04347,2.98731-.02423,5.97566-.01053,8.96354C45.72484,61.21143,45.55218,61.68229,45.96095,62.02787Z" transform="translate(-0.49582 -0.46876)"/><path class="cls-10" d="M41.41431,50.77333a22.41435,22.41435,0,0,0-.7242,4.26635c-.40969,2.64269-.63348,5.31375-1.2089,7.93146-.1587.01091-.31738.03067-.47612.03122-1.83006.00628-1.86962-.05159-1.87011-1.82132-.00122-4.42359-.02129-8.84718-.03379-13.27077l.09869-.95734a2.19046,2.19046,0,0,0,1.41484,1.95718c.93858.50313,1.8405,1.07479,2.75815,1.61663Q41.39341,50.65,41.41431,50.77333Z" transform="translate(-0.49582 -0.46876)"/><path class="cls-11" d="M63.65755,90.851a11.3688,11.3688,0,0,0,4.58678,3.05865q-.01953.12216-.03956.24426A13.85045,13.85045,0,0,1,58.57693,97.248,13.18959,13.18959,0,0,1,46.14518,85.82405a41.85709,41.85709,0,0,1-.15773-6.54617,34.34011,34.34011,0,0,0,4.94363,3.119q.04353.12747.08674.25492a8.49658,8.49658,0,0,0,2.79306,7.14965c2.09151,2.072,6.7274,3.08954,9.3654,1.19852Z" transform="translate(-0.49582 -0.46876)"/><path class="cls-12" d="M28.92545,96.25564a19.208,19.208,0,0,1-5.47319,1.03A13.372,13.372,0,0,1,10.59169,86.65975a9.624,9.624,0,0,1-.08-1.78664q-.03691-5.67424-.0604-11.34855l.11651.01985,8.81236-.01082a13.24966,13.24966,0,0,0-3.4964,4.75956c-.69209,1.79212-.51045,3.61672-.50859,5.436A8.31865,8.31865,0,0,0,23.299,92.01533a8.40769,8.40769,0,0,0,8.55714-8.16294,2.08247,2.08247,0,0,0,.15993-1.2736c.02029-3.0152.02659-6.0305.03735-9.04577q.89643.00054,1.79285.001c3.121.00011,3.121.00005,3.00674-3.084-.066-1.77959.09038-1.93853,1.91433-1.94623l.00058.00058q-.00034.10331.00077.20663c-.397.106-.86214-.09277-1.20212.26887l-.25924.19783c-.248.21161-.20019.49734-.19944.77481.01077,3.98634-.10478,7.97813.06928,11.95725a16.66674,16.66674,0,0,1-1.706,8.5307,3.11359,3.11359,0,0,1-.2722.3832,1.43763,1.43763,0,0,1,.17989-.91906c2.20673-3.98482,1.26663-8.30581,1.50443-12.78521a3.87075,3.87075,0,0,0-.39165.51786C34.70487,82.17674,32.862,86.69564,31.17482,91.272c-.54872,1.48837-1.49331,2.87087-1.48755,4.54732Z" transform="translate(-0.49582 -0.46876)"/><path class="cls-2" d="M37.56657,68.97987c.34-.36164.80508-.16284,1.20212-.26874q3.46466.04277,6.92931.08527a2.60558,2.60558,0,0,1,.25294.77123c-.01351,3.23835-.05108,6.4766-.08288,9.71477-2.33-1.84665-4.90672-3.33182-7.34-5.02672l-.47777-.24421q-.0033-.11312-.00957-.22614a25.63063,25.63063,0,0,1,.55883-3.56847C38.9358,69.0802,38.50942,68.8914,37.56657,68.97987Z" transform="translate(-0.49582 -0.46876)"/><path class="cls-13" d="M29.68727,95.81935c-.00576-1.67645.93883-3.05895,1.48755-4.54732,1.68719-4.57639,3.53-9.09529,5.31686-13.63478a3.87075,3.87075,0,0,1,.39165-.51786c-.2378,4.4794.7023,8.80039-1.50443,12.78521a1.43763,1.43763,0,0,0-.17989.91906A10.76615,10.76615,0,0,1,29.68727,95.81935Z" transform="translate(-0.49582 -0.46876)"/><path class="cls-14" d="M37.56657,68.97987c.94285-.08847,1.36923.10033,1.033,1.237a25.61824,25.61824,0,0,0-.55874,3.56835q-.34574-.00113-.69164-.002-.02078-2.30253-.04168-4.60529Q37.43688,69.07868,37.56657,68.97987Z" transform="translate(-0.49582 -0.46876)"/><path class="cls-15" d="M37.34915,73.78321q.34587.00095.69164.002.00614.1132.00947.22626l-.70111,1.27171Z" transform="translate(-0.49582 -0.46876)"/><path class="cls-16" d="M37.19988,46.95293q-.04935.47868-.09875.95728c-2.04329-1.14469-3.85707-2.6765-6.0399-3.58554l-.63954-.73642c-1.50771-1.87472-3.26457-3.34791-5.78242-3.59479l-2.624-.05089c.42154-.41289,1.06582.04791,1.60167-.41944a22.548,22.548,0,0,0-2.39361-1.55657c-1.18587-.57876-2.088-1.71672-3.5212-1.8014q.01707-.1032.03028-.20695a17.43938,17.43938,0,0,1,6.27167-1.24962A13.18866,13.18866,0,0,1,36.87,45.55924C36.94636,46.02928,37.08838,46.48862,37.19988,46.95293Z" transform="translate(-0.49582 -0.46876)"/><path class="cls-17" d="M17.70214,36.16516c1.4332.08468,2.33533,1.22264,3.5212,1.8014A22.548,22.548,0,0,1,23.617,39.52313c-.53585.46735-1.18013.00655-1.60167.41968a2.716,2.716,0,0,1-.42335.21707,8.45912,8.45912,0,0,0-6.23632,8.46532q.00627,4.48839-.00327,8.97679-.0067,5.62535-.01786,11.2507c-.00129,1.17144.07842,1.21489,1.10021.63385.10383-.059.20257-.12725.30734-.18446a42.569,42.569,0,0,1,14.05587-5.0803,1.27,1.27,0,0,0,1.25357-1.5192c-.06633-1.98735.00721-3.97971-.07173-5.96623-.16477-4.14668.5649-8.36265-.91851-12.41168,2.18283.909,3.99661,2.44085,6.0399,3.58554.01256,4.42365.03263,8.84724.03385,13.27083.00049,1.76973.04005,1.8276,1.87011,1.82132.15874-.00055.31742-.02031.47612-.03122,2.15185-.07994,4.323.321,6.45472-.26-.20719.61112-.72426.52123-1.195.52241-1.43329.0036-2.867.02089-4.29972-.00758-.61272-.01218-.91763.12307-.994.82871-.16138,1.49012-.44586,2.96689-.67984,4.44913-1.82395.0077-1.98028.16664-1.91433,1.94623.11428,3.08408.11428,3.08414-3.00674,3.084q-.89641,0-1.79278-.001c-.02687-1.07045-.02595-2.14264-.0922-3.21066-.0344-.55456-.17459-.87006-.972-.72978a33.23859,33.23859,0,0,0-6.86978,1.84546c-1.52683.62428-3.20751.947-4.49763,2.09l-.24168.00556-8.81236.01082q-.02666-9.9237-.0526-19.84737c-.005-2.11272-.01593-4.2256.00313-6.33816.04435-4.91611,2.47349-8.42187,6.51995-10.954A3.284,3.284,0,0,1,17.70214,36.16516Z" transform="translate(-0.49582 -0.46876)"/><path class="cls-2" d="M51.01782,82.65184q-.04329-.12746-.08674-.25492.02472-6.34533.04885-12.69067c.00515-1.558.355-1.97041,1.87923-2.13367,4.95185-.53041,9.305-2.61245,13.44945-5.21788.71338-.44847,1.02251-.525,1.09091.50173.11685,1.75391-.11591,3.49066-.11051,5.23706.01554,5.02948-.12572,10.06391.06062,15.08651A8.6574,8.6574,0,0,1,65.1,89.60512c-.43316.49025-.99881.78873-1.44243,1.24542q-.2406.0752-.48126.14958c-.12275-.274-.38222-.3841-.6138-.54032Q56.78546,86.5628,51.01782,82.65184Z" transform="translate(-0.49582 -0.46876)"/><path class="cls-2" d="M67.47491,49.82912c.22861,4.36738-1.80676,7.7334-6.062,9.60437a40.10437,40.10437,0,0,1-9.29611,2.929c-.87425.1513-.9387-.14764-.93462-.82128.02212-3.66493.02683-7.33.03749-10.995a18.53533,18.53533,0,0,1,1.99989-.22346C57.97624,50.28982,62.72546,50.05977,67.47491,49.82912Z" transform="translate(-0.49582 -0.46876)"/><path class="cls-1" d="M67.47491,49.82912c-4.74945.23065-9.49867.4607-14.25532.49367a18.53533,18.53533,0,0,0-1.99989.22346q-.01118-2.04064-.02258-4.08138c.6041-3.149,4.03249-6.25549,7.58272-6.65851a8.13753,8.13753,0,0,1,7.61285,4.21111c.18442.34784.40189.67813.604,1.01658A14.25851,14.25851,0,0,1,67.47491,49.82912Z" transform="translate(-0.49582 -0.46876)"/><path class="cls-17" d="M45.698,68.7964q-3.46466-.04256-6.92931-.08527-.00111-.10351-.00077-.20676c1.94958-.00013,3.89921-.00776,5.84869.00617C44.99065,68.51321,45.43032,68.35525,45.698,68.7964Z" transform="translate(-0.49582 -0.46876)"/><path class="cls-5" d="M51.01782,82.65184q5.77088,3.90615,11.54465,7.808c.23158.15622.49105.26628.6138.54032-2.638,1.89091-7.27388.87335-9.36539-1.19863A8.49658,8.49658,0,0,1,51.01782,82.65184Z" transform="translate(-0.49582 -0.46876)"/><path class="cls-6" d="M19.38021,73.53359l.24164-.00551c3.69413.002,7.38866.03166,11.08226-.0138.90427-.01114,1.14638.27569,1.13557,1.15561-.03762,3.06031.0046,6.12159.01646,9.1825A8.40769,8.40769,0,0,1,23.299,92.01533a8.31865,8.31865,0,0,1-7.92378-8.28614c-.00186-1.81932-.1835-3.64392.50859-5.436A13.24966,13.24966,0,0,1,19.38021,73.53359Z" transform="translate(-0.49582 -0.46876)"/><path class="cls-7" d="M31.85614,83.85239c-.01186-3.06091-.05408-6.12219-.01646-9.1825.01081-.87992-.2313-1.16675-1.13557-1.15561-3.6936.04546-7.38813.01581-11.08226.0138,1.29016-1.143,2.97084-1.46573,4.49767-2.09a33.23859,33.23859,0,0,1,6.86978-1.84546c.7974-.14028.93759.17522.972.72978.06625,1.068.06533,2.14021.0922,3.21066-.01083,3.01524-.01713,6.03054-.03742,9.04574A2.08247,2.08247,0,0,1,31.85614,83.85239Z" transform="translate(-0.49582 -0.46876)"/><path class="cls-7" d="M31.06123,44.32467c1.48341,4.049.75374,8.265.91851,12.41168.07894,1.98652.0054,3.97888.07173,5.96623a1.27,1.27,0,0,1-1.25357,1.5192A42.569,42.569,0,0,0,16.742,69.30208c-.10477.05721-.20351.12541-.30734.18446-1.02179.581-1.1015.53759-1.10021-.63385q.00618-5.62536.01786-11.2507.00537-4.48839.00327-8.97679a8.45912,8.45912,0,0,1,6.23632-8.46532,2.716,2.716,0,0,0,.42335-.21707q1.312.02508,2.6241.05068a41.97344,41.97344,0,0,0,5.78231,3.59476Z" transform="translate(-0.49582 -0.46876)"/><path class="cls-18" d="M30.42169,43.58825a41.97344,41.97344,0,0,1-5.78231-3.59476C27.15712,40.24034,28.914,41.71353,30.42169,43.58825Z" transform="translate(-0.49582 -0.46876)"/></svg>
