<svg width="80" height="80" viewBox="0 0 80 80" fill="none" xmlns="http://www.w3.org/2000/svg">
    <path fill-rule="evenodd" clip-rule="evenodd"
        d="M40.0037 21.1236C40.003 21.1241 40.0023 21.1247 40.0015 21.1252C35.3678 17.7176 30.6907 15.0562 26.248 13.2315C20.4806 10.8641 15.1056 9.90915 10.7219 10.5667C7.86941 10.9946 5.43714 12.1061 3.58991 13.9569C1.68018 15.8703 0.555176 18.4203 0.162813 21.4122C0.124619 15.138 1.96663 9.65867 5.8781 5.73965C13.3434 -1.74004 26.4997 -1.66698 40.0015 4.63684C44.9015 6.95548 49.5151 9.83821 53.7491 13.2267C53.7499 13.2264 53.7507 13.2261 53.7515 13.2257C55.7192 14.7878 57.6514 16.4802 59.5484 18.3032L60.1335 18.8703L60.6544 19.3921L61.1752 19.914C61.3261 20.0652 61.4993 20.2453 61.6652 20.4177C61.6901 20.4437 61.7149 20.4694 61.7394 20.4949C64.4742 23.3333 66.9907 26.3751 69.2673 29.5941C71.5628 32.826 73.5716 36.2531 75.2707 39.836L75.2712 39.837C75.344 39.9932 75.4167 40.1495 75.4877 40.3057C81.6753 53.757 81.71 66.8308 74.2812 74.274C69.2325 79.3323 61.5867 80.9361 52.9911 79.4924C58.2169 80.0594 62.6283 78.9862 65.5641 76.0447C67.2325 74.3731 68.3002 72.2179 68.8037 69.7166C69.6874 65.3331 68.8575 59.8607 66.5311 53.9518L66.5051 53.884C65.1771 50.5839 63.5603 47.408 61.6735 44.3934C58.5971 39.4273 54.6335 34.402 49.8939 29.6532C46.8178 26.5629 43.5115 23.7115 40.0037 21.1236Z"
        fill="url(#paint0_linear_72_25)" />
    <g filter="url(#filter0_i_72_25)">
        <path fill-rule="evenodd" clip-rule="evenodd"
            d="M29.9563 69.3173C33.5182 68.1086 36.9415 66.5231 40.1682 64.5877L40.0848 64.5303C35.1109 61.5428 30.5281 57.9457 26.4424 53.8221C23.5279 50.9109 20.8682 47.7544 18.4927 44.3873C18.4874 44.3797 18.4821 44.3721 18.4768 44.3644C18.4539 44.3315 18.4305 44.298 18.4094 44.2655C14.9892 39.3776 12.4649 34.3714 10.9024 29.5844C10.885 29.5323 10.8694 29.4818 10.8538 29.4296C8.54994 22.2474 8.45449 15.5713 10.8851 10.5547L10.7114 10.5825C10.7148 10.5729 10.7188 10.5636 10.7236 10.5547C7.87112 10.9878 5.43885 12.0941 3.59162 13.9449C1.67841 15.8618 0.556882 18.4084 0.16452 21.4003C0.166834 21.8375 0.178399 22.2787 0.199233 22.724C-0.0889629 27.7058 1.45793 33.7591 4.59857 40.1291C4.62461 40.1917 4.65239 40.2474 4.68017 40.303C6.51547 43.9498 8.66483 47.4291 11.1038 50.7015C11.8654 51.7707 12.6645 52.8318 13.5014 53.8848C14.6657 55.3517 15.9007 56.7949 17.2062 58.2143L17.2392 58.2508C17.9742 59.0486 18.7306 59.8372 19.5083 60.6165C22.004 63.1217 24.6639 65.4572 27.4702 67.6074L27.5067 67.6352C28.2659 68.2151 29.0292 68.7757 29.7966 69.3173L29.8747 69.2912L29.9268 69.3277L29.9563 69.3173ZM65.5642 76.0494C67.2326 74.3777 68.3003 72.2278 68.8037 69.7212C63.7794 71.8799 57.2447 71.652 50.2429 69.3281L50.2134 69.3177C46.9891 71.6063 43.5723 73.6095 40.0015 75.3049L39.8158 75.3901L40.0015 75.4806C44.6057 77.6966 49.0328 79.0674 52.9912 79.497C58.2169 80.0641 62.6284 78.9908 65.5642 76.0494Z"
            fill="#5DFDB0" />
    </g>
    <path
        d="M79.8403 21.4117C79.4479 18.4198 78.3264 15.8733 76.4132 13.9564C74.566 12.1056 72.1336 10.9993 69.2812 10.5662C64.8975 9.90865 59.5225 10.8636 53.7551 13.231C49.3124 15.0557 44.6353 17.7171 40.0016 21.1247C36.4917 23.7137 33.1835 26.5665 30.1057 29.6585C25.4043 34.369 21.4667 39.3508 18.4025 44.27L18.3261 44.3918C16.4393 47.4063 14.8225 50.5822 13.4945 53.8823L13.4685 53.9501C11.1421 59.8643 10.3122 65.3315 11.1959 69.7149C11.6994 72.2215 12.7671 74.3715 14.4355 76.0431C17.3713 78.9845 21.7827 80.0578 27.0084 79.4907C18.4129 80.9293 10.7671 79.3255 5.71844 74.2723C-1.71042 66.8292 -1.67572 53.7466 4.51528 40.3058C4.54132 40.2501 4.56566 40.1945 4.59343 40.1318C4.63857 40.031 4.68541 39.9301 4.73229 39.8292C6.43138 36.2462 8.44022 32.8192 10.7358 29.5872L10.8469 29.4324C13.0939 26.2704 15.573 23.2807 18.2636 20.4881C18.4511 20.2933 18.6392 20.0996 18.8279 19.9071C19.0015 19.7331 19.1751 19.5592 19.3487 19.3852L19.8695 18.8634L20.4494 18.2981C22.3371 16.4786 24.2694 14.7861 26.2463 13.2206C30.4819 9.82999 35.0976 6.94562 39.9998 4.62589C53.5016 -1.67793 66.6545 -1.75448 74.1233 5.7287C78.0365 9.6512 79.8785 15.1375 79.8403 21.4117Z"
        fill="url(#paint1_linear_72_25)" />
    <mask id="mask0_72_25" style="mask-type:alpha" maskUnits="userSpaceOnUse" x="0" y="0" width="80" height="80">
        <path fill-rule="evenodd" clip-rule="evenodd"
            d="M40.0037 21.1236C40.003 21.1241 40.0022 21.1247 40.0015 21.1252C35.3678 17.7176 30.6907 15.0562 26.248 13.2315C20.4806 10.8641 15.1055 9.90915 10.7218 10.5667C7.86938 10.9946 5.43711 12.1061 3.58988 13.9569C1.68015 15.8703 0.555145 18.4203 0.162783 21.4122C0.124588 15.138 1.9666 9.65867 5.87807 5.73965C13.3434 -1.74004 26.4997 -1.66698 40.0015 4.63684C44.9014 6.95548 49.5151 9.83821 53.7491 13.2267C53.7499 13.2264 53.7507 13.2261 53.7516 13.2257C55.7192 14.7878 57.6514 16.4802 59.5484 18.3032L60.1335 18.8703L60.6544 19.3921L61.1752 19.914C61.326 20.0651 61.4991 20.2451 61.6649 20.4174C61.6899 20.4435 61.7148 20.4694 61.7394 20.4949C64.4742 23.3333 66.9907 26.3751 69.2673 29.5941C71.5629 32.826 73.5717 36.2531 75.2707 39.836C75.3437 39.9926 75.4166 40.1491 75.4877 40.3057C81.6753 53.757 81.71 66.8308 74.2812 74.274C69.2325 79.3323 61.5867 80.9361 52.9912 79.4924C58.2169 80.0594 62.6283 78.9862 65.5641 76.0447C67.2325 74.3731 68.3002 72.2179 68.8037 69.7166C69.6874 65.3331 68.8575 59.8607 66.5311 53.9518L66.5051 53.884C65.1771 50.5839 63.5603 47.408 61.6735 44.3934C58.5971 39.4273 54.6335 34.402 49.8939 29.6532C46.8178 26.5629 43.5115 23.7115 40.0037 21.1236Z"
            fill="url(#paint2_linear_72_25)" />
    </mask>
    <g mask="url(#mask0_72_25)">
        <g filter="url(#filter1_d_72_25)">
            <path
                d="M79.8402 21.4112C79.4479 18.4194 78.3263 15.8728 76.4131 13.9559C74.5659 12.1051 72.1336 10.9988 69.2811 10.5657C64.8974 9.90816 59.5224 10.8631 53.755 13.2305C49.3123 15.0552 44.6352 17.7166 40.0015 21.1242C36.4916 23.7132 33.1834 26.566 30.1056 29.658C25.4042 34.3685 21.4667 39.3503 18.4024 44.2695L18.326 44.3913C16.4392 47.4058 14.8224 50.5817 13.4945 53.8818L13.4684 53.9497C11.142 59.8638 10.3122 65.331 11.1958 69.7144C11.6993 72.221 12.767 74.371 14.4354 76.0426C17.3712 78.984 21.7827 80.0573 27.0084 79.4902C18.4129 80.9288 10.767 79.325 5.71837 74.2718C-1.71048 66.8287 -1.67579 53.7461 4.51521 40.3053C4.54126 40.2496 4.5656 40.194 4.59337 40.1314C4.63851 40.0305 4.68535 39.9296 4.73223 39.8287C6.43131 36.2457 8.44016 32.8187 10.7357 29.5867L10.8469 29.4319C13.0938 26.2699 15.5729 23.2802 18.2636 20.4876C18.4511 20.2928 18.6392 20.0991 18.8278 19.9066C19.0014 19.7326 19.175 19.5587 19.3486 19.3848L19.8695 18.8629L20.4493 18.2976C22.3371 16.4781 24.2694 14.7856 26.2462 13.2201C30.4819 9.8295 35.0975 6.94513 39.9998 4.6254C53.5016 -1.67842 66.6544 -1.75496 74.1232 5.72821C78.0364 9.65071 79.8784 15.137 79.8402 21.4112Z"
                fill="url(#paint3_linear_72_25)" />
        </g>
    </g>
    <g filter="url(#filter2_i_72_25)">
        <path fill-rule="evenodd" clip-rule="evenodd"
            d="M75.2686 39.8411C75.3411 39.9967 75.4135 40.1522 75.4843 40.3078C78.9652 33.3082 80.5294 26.6686 79.8402 21.412C79.4478 18.4201 78.3228 15.87 76.4131 13.9566C74.5659 12.1058 72.1336 10.9943 69.2811 10.5664C71.7273 15.6196 71.6145 22.3548 69.2638 29.5962C71.5594 32.8281 73.5682 36.2552 75.2673 39.8381L75.2686 39.8411ZM62.8002 58.2185C64.1138 56.813 65.3575 55.3924 66.5311 53.9568L66.5085 53.896C65.1805 50.5958 63.5637 47.4199 61.6769 44.4054C59.3013 47.7725 56.6417 50.929 53.7272 53.8403C49.6416 57.9638 45.0587 61.5609 40.0848 64.5484L40.0049 64.5954C36.8015 66.5141 33.4047 68.0883 29.8712 69.292L29.7931 69.318L29.7636 69.3285C22.7618 71.6524 16.2201 71.8803 11.2027 69.7216C11.7062 72.2229 12.7739 74.3781 14.4423 76.0497C17.3781 78.9912 21.7896 80.0644 27.0153 79.4974C30.9771 79.0677 35.4007 77.697 40.0049 75.4809L40.1907 75.3905C43.7092 73.6612 47.0734 71.6332 50.2463 69.3285C50.9986 68.78 51.7509 68.2158 52.5033 67.636L52.5397 67.6081C55.3447 65.459 58.0034 63.1246 60.4981 60.6207C61.2759 59.8403 62.0322 59.0517 62.7672 58.255L62.8002 58.2185Z"
            fill="#5DFDB0" />
    </g>
    <defs>
        <filter id="filter0_i_72_25" x="0.16452" y="10.5547" width="68.6392" height="69.784"
            filterUnits="userSpaceOnUse" color-interpolation-filters="sRGB">
            <feFlood flood-opacity="0" result="BackgroundImageFix" />
            <feBlend mode="normal" in="SourceGraphic" in2="BackgroundImageFix" result="shape" />
            <feColorMatrix in="SourceAlpha" type="matrix" values="0 0 0 0 0 0 0 0 0 0 0 0 0 0 0 0 0 0 127 0"
                result="hardAlpha" />
            <feOffset dy="0.695653" />
            <feGaussianBlur stdDeviation="1.73913" />
            <feComposite in2="hardAlpha" operator="arithmetic" k2="-1" k3="1" />
            <feColorMatrix type="matrix" values="0 0 0 0 0 0 0 0 0 0 0 0 0 0 0 0 0 0 0.15 0" />
            <feBlend mode="normal" in2="shape" result="effect1_innerShadow_72_25" />
        </filter>
        <filter id="filter1_d_72_25" x="-3.47833" y="-4.52223" width="90.2757" height="90.4304"
            filterUnits="userSpaceOnUse" color-interpolation-filters="sRGB">
            <feFlood flood-opacity="0" result="BackgroundImageFix" />
            <feColorMatrix in="SourceAlpha" type="matrix" values="0 0 0 0 0 0 0 0 0 0 0 0 0 0 0 0 0 0 127 0"
                result="hardAlpha" />
            <feOffset dx="1.73913" dy="0.695653" />
            <feGaussianBlur stdDeviation="2.6087" />
            <feComposite in2="hardAlpha" operator="out" />
            <feColorMatrix type="matrix" values="0 0 0 0 0.0605208 0 0 0 0 0.595138 0 0 0 0 0.691667 0 0 0 1 0" />
            <feBlend mode="normal" in2="BackgroundImageFix" result="effect1_dropShadow_72_25" />
            <feBlend mode="normal" in="SourceGraphic" in2="effect1_dropShadow_72_25" result="shape" />
        </filter>
        <filter id="filter2_i_72_25" x="11.2027" y="10.5664" width="68.7968" height="69.7723"
            filterUnits="userSpaceOnUse" color-interpolation-filters="sRGB">
            <feFlood flood-opacity="0" result="BackgroundImageFix" />
            <feBlend mode="normal" in="SourceGraphic" in2="BackgroundImageFix" result="shape" />
            <feColorMatrix in="SourceAlpha" type="matrix" values="0 0 0 0 0 0 0 0 0 0 0 0 0 0 0 0 0 0 127 0"
                result="hardAlpha" />
            <feOffset dy="0.695653" />
            <feGaussianBlur stdDeviation="1.73913" />
            <feComposite in2="hardAlpha" operator="arithmetic" k2="-1" k3="1" />
            <feColorMatrix type="matrix" values="0 0 0 0 0 0 0 0 0 0 0 0 0 0 0 0 0 0 0.15 0" />
            <feBlend mode="normal" in2="shape" result="effect1_innerShadow_72_25" />
        </filter>
        <linearGradient id="paint0_linear_72_25" x1="0.162225" y1="80.0001" x2="-43.968" y2="-51.716"
            gradientUnits="userSpaceOnUse">
            <stop stop-color="#149EE3" />
            <stop offset="1" stop-color="#5DFDB0" />
        </linearGradient>
        <linearGradient id="paint1_linear_72_25" x1="-6.4295e-06" y1="79.9956" x2="-44.1366" y2="-51.7316"
            gradientUnits="userSpaceOnUse">
            <stop stop-color="#149EE3" />
            <stop offset="1" stop-color="#5DFDB0" />
        </linearGradient>
        <linearGradient id="paint2_linear_72_25" x1="0.162194" y1="80.0001" x2="-43.9681" y2="-51.716"
            gradientUnits="userSpaceOnUse">
            <stop stop-color="#149EE3" />
            <stop offset="1" stop-color="#5DFDB0" />
        </linearGradient>
        <linearGradient id="paint3_linear_72_25" x1="-6.74647e-05" y1="79.9951" x2="-44.1367" y2="-51.7321"
            gradientUnits="userSpaceOnUse">
            <stop stop-color="#149EE3" />
            <stop offset="1" stop-color="#5DFDB0" />
        </linearGradient>
    </defs>
</svg>